<?xml version="1.0" encoding="UTF-8" standalone="no"?>
<svg width="24px" height="24px" viewBox="0 0 24 24" version="1.1" xmlns="http://www.w3.org/2000/svg"
     xmlns:xlink="http://www.w3.org/1999/xlink">
    <!-- Generator: Sketch 3.6.1 (26313) - http://www.bohemiancoding.com/sketch -->
    <title>icon_payment_active@2x</title>
    <desc>Created with Sketch.</desc>
    <defs></defs>
    <g id="Page-1" stroke="none" stroke-width="1" fill="none" fill-rule="evenodd">
        <g id="icons" transform="translate(-301.000000, -193.000000)" fill="#B3282D">
            <g id="icon_payment_active" transform="translate(301.000000, 193.000000)">
                <path d="M12,24 C18.627417,24 24,18.627417 24,12 C24,5.372583 18.627417,0 12,0 C5.372583,0 0,5.372583 0,12 C0,18.627417 5.372583,24 12,24 Z M6,5.99406028 C6,4.8927712 6.89845933,4 8.003192,4 L15.0261354,4 L18,7.05016184 L18,18.0049677 C18,19.1067936 17.0980496,20 15.9914698,20 L8.0085302,20 C6.8992496,20 6,19.1054862 6,18.0059397 L6,5.99406028 Z M8,8 C8,7.44771525 8.45097518,7 8.99077797,7 L13.009222,7 C13.5564136,7 14,7.44386482 14,8 C14,8.55228475 13.5490248,9 13.009222,9 L8.99077797,9 C8.44358641,9 8,8.55613518 8,8 Z M8,12 C8,11.4477153 8.45303631,11 8.99703014,11 L15.0029699,11 C15.5536144,11 16,11.4438648 16,12 C16,12.5522847 15.5469637,13 15.0029699,13 L8.99703014,13 C8.4463856,13 8,12.5561352 8,12 Z M8,16 C8,15.4477153 8.45303631,15 8.99703014,15 L15.0029699,15 C15.5536144,15 16,15.4438648 16,16 C16,16.5522847 15.5469637,17 15.0029699,17 L8.99703014,17 C8.4463856,17 8,16.5561352 8,16 Z"
                      id="Oval-7"></path>
            </g>
        </g>
    </g>
</svg>